<svg width="18" height="17" viewBox="0 0 18 17" fill="none" xmlns="http://www.w3.org/2000/svg">
<path d="M16.4675 10.1311C16.9024 10.0139 17.1199 9.95521 17.2057 9.84305C17.2917 9.73096 17.2917 9.55055 17.2917 9.1898V7.57838C17.2917 7.21763 17.2917 7.03721 17.2057 6.92513C17.1198 6.81296 16.9024 6.7543 16.4675 6.63703C14.8422 6.19871 13.8249 4.49947 14.2444 2.88477C14.3597 2.44071 14.4174 2.21868 14.3623 2.08846C14.3072 1.95823 14.1493 1.8685 13.8331 1.68901L12.3958 0.87299C12.0857 0.696873 11.9306 0.608815 11.7914 0.627565C11.6522 0.646315 11.4952 0.80299 11.181 1.11632C9.965 2.32945 7.953 2.3294 6.73695 1.11625C6.42286 0.802906 6.26582 0.64624 6.12661 0.627481C5.98741 0.608731 5.83231 0.69679 5.52211 0.872906L4.08487 1.68894C3.76878 1.86841 3.61072 1.95814 3.55565 2.08834C3.50057 2.21855 3.55822 2.44061 3.67354 2.88471C4.09281 4.49946 3.07477 6.19874 1.44918 6.63705C1.01427 6.7543 0.796808 6.81296 0.7109 6.92505C0.625 7.03721 0.625 7.21763 0.625 7.57838V9.1898C0.625 9.55055 0.625 9.73096 0.7109 9.84305C0.796792 9.95521 1.01426 10.0139 1.44918 10.1311C3.0745 10.5695 4.09173 12.2687 3.67227 13.8834C3.55691 14.3275 3.49922 14.5495 3.5543 14.6797C3.60938 14.81 3.76743 14.8997 4.08354 15.0791L5.52079 15.8952C5.83101 16.0713 5.98612 16.1594 6.12533 16.1406C6.26455 16.1219 6.42157 15.9651 6.73559 15.6518C7.95225 14.4377 9.96567 14.4376 11.1824 15.6517C11.4964 15.9651 11.6534 16.1218 11.7927 16.1405C11.9318 16.1593 12.087 16.0712 12.3972 15.8951L13.8344 15.079C14.1506 14.8996 14.3087 14.8099 14.3637 14.6796C14.4188 14.5494 14.3611 14.3274 14.2457 13.8833C13.826 12.2687 14.8424 10.5695 16.4675 10.1311Z" stroke="#080B12" stroke-width="1.25" stroke-linecap="round"/>
</svg>
